<?xml version="1.0" encoding="utf-8"?>
<!-- Uploaded to: SVG Repo, www.svgrepo.com, Generator: SVG Repo Mixer Tools -->
<svg fill="#00df9a" version="1.1" id="Layer_1" xmlns="http://www.w3.org/2000/svg" xmlns:xlink="http://www.w3.org/1999/xlink" 
	 width="800px" height="800px" viewBox="0 0 256 240" enable-background="new 0 0 256 240" xml:space="preserve">
<path d="M66.274,42.594c-0.954-0.954-1.09-2.453-0.204-3.475c0.954-1.022,2.521-1.09,3.543-0.068L85.83,55.2
	c0.681-0.204,1.431-0.341,2.181-0.341c4.225,0,7.564,3.407,7.564,7.563c0,0.681-0.068,1.227-0.204,1.84
	c0.477-0.068,1.022-0.136,1.567-0.136c4.225,0,7.563,3.407,7.563,7.564c0,0.613-0.068,1.158-0.204,1.703
	c0.613-0.068,1.227-0.205,1.84-0.205c4.225,0,7.564,3.407,7.564,7.564c0,0.681-0.068,1.226-0.204,1.84
	c0.613-0.068,1.227-0.204,1.84-0.204c4.225,0,7.564,3.407,7.564,7.563c0,0.613-0.136,1.295-0.273,1.908l10.153,10.085
	c1.567,1.567,4.157,1.567,5.724,0.068c1.635-1.567,1.703-4.225,0.068-5.86l-12.947-12.878c-0.818-0.817-1.022-2.18-0.341-3.134
	c0.886-1.294,2.658-1.431,3.748-0.341l13.219,13.219c1.567,1.567,4.02,1.567,5.656,0.136c1.635-1.499,1.703-4.088,0.136-5.724
	c-3.952-4.02-13.287-13.355-13.287-13.355c-1.09-1.09-0.954-2.862,0.409-3.748c0.954-0.681,2.317-0.477,3.134,0.409l13.492,13.56
	c1.635,1.635,4.157,1.635,5.724,0.068c1.567-1.567,1.567-4.361-0.068-5.996l-13.424-13.628c-0.818-0.818-1.022-2.181-0.341-3.134
	c0.886-1.295,2.726-1.431,3.748-0.341l13.219,13.423c1.567,1.635,4.157,1.635,5.792,0c1.567-1.567,1.567-4.157,0-5.792
	l-35.365-35.364c-8.722-8.381-14.582-3.68-14.582-3.68l-2.589,11.039c-0.954,4.02-5.042,6.473-9.063,5.247
	c-3.68-1.09-5.724-4.974-4.906-8.722c1.976-8.654,5.179-22.418,6.269-27.46c0.75-3.203,4.157-6.882,10.562-5.587
	c8.04,1.703,33.593,7.495,33.593,7.495l8.245-9.131c0.886-0.954,2.385-1.022,3.339-0.136l27.733,25.076
	c1.022,0.886,1.158,2.385,0.204,3.475l-9.608,10.562c0,0-5.451,8.381-6.405,9.812c-2.93,4.293-7.768,6.405-10.494,7.359l6.678,6.678
	c3.475,3.475,3.68,9.403,0.136,12.81c-2.93,2.862-6.473,2.59-6.61,2.59c0.136,2.453-0.75,4.974-2.589,6.814
	c-2.93,2.93-6.473,2.589-6.541,2.521c0.068,2.385-0.818,4.77-2.589,6.609c-1.772,1.772-4.02,2.589-6.337,2.589
	c-0.272,0-0.545,0-0.818-0.068c-0.068,2.18-1.022,4.225-2.589,5.928c-1.84,2.044-7.768,4.702-12.674,0
	c-2.385-2.317-9.335-9.335-9.335-9.335l-8.586,8.654c-1.363,1.84-3.543,3.066-6.064,3.066c-4.225,0-7.564-3.407-7.564-7.564
	c0-0.681,0.068-1.227,0.204-1.84c-0.613,0.068-1.227,0.204-1.84,0.204c-4.225,0-7.564-3.407-7.564-7.564
	c0-0.613,0.068-1.158,0.204-1.703c-0.613,0.068-1.227,0.204-1.84,0.204c-4.225,0-7.563-3.407-7.563-7.563
	c0-0.681,0.068-1.227,0.204-1.84c-0.477,0.068-1.022,0.136-1.567,0.136c-4.225,0-7.768-3.339-7.768-7.564
	c0-1.635,0.545-3.407,1.704-4.702c0.136-0.136,7.427-7.564,9.812-9.948L66.274,42.594z M2,238.028v-52.933
	c0-14.61,12.138-25.666,25.165-25.666H92v-24.725c0-8.762,7.977-14.275,17.351-14.275c-0.2,0,36.298,0,36.298,0
	c9.573,0,17.351,5.513,17.351,14.275v23.725h65.849c12.968,0,25.053,11.187,25.151,25.97v53.629H2z M105,159.429h45v-25h-45V159.429
	z"/>
</svg>